<svg width="24" height="25" viewBox="0 0 24 25" fill="none" xmlns="http://www.w3.org/2000/svg">
<path d="M18.408 4.84243C18.1232 4.84243 17.8448 4.92688 17.608 5.08511C17.3712 5.24334 17.1866 5.46824 17.0776 5.73137C16.9686 5.99449 16.9401 6.28403 16.9957 6.56336C17.0512 6.84269 17.1884 7.09928 17.3898 7.30066C17.5912 7.50205 17.8477 7.6392 18.1271 7.69476C18.4064 7.75032 18.6959 7.72181 18.9591 7.61282C19.2222 7.50383 19.4471 7.31926 19.6053 7.08245C19.7635 6.84564 19.848 6.56723 19.848 6.28243C19.848 5.90052 19.6963 5.53425 19.4262 5.2642C19.1562 4.99414 18.7899 4.84243 18.408 4.84243ZM23.928 7.74643C23.9047 6.75079 23.7182 5.76571 23.376 4.83043C23.0709 4.03019 22.596 3.30556 21.984 2.70643C21.3898 2.09134 20.6635 1.61944 19.86 1.32643C18.9272 0.973823 17.941 0.783082 16.944 0.76243C15.672 0.69043 15.264 0.69043 12 0.69043C8.736 0.69043 8.328 0.69043 7.056 0.76243C6.05898 0.783082 5.07281 0.973823 4.14 1.32643C3.33801 1.62241 2.61232 2.0939 2.016 2.70643C1.40091 3.30064 0.929012 4.02696 0.636 4.83043C0.283393 5.76324 0.092652 6.74941 0.0719999 7.74643C-6.70552e-08 9.01843 0 9.42643 0 12.6904C0 15.9544 -6.70552e-08 16.3624 0.0719999 17.6344C0.092652 18.6314 0.283393 19.6176 0.636 20.5504C0.929012 21.3539 1.40091 22.0802 2.016 22.6744C2.61232 23.287 3.33801 23.7585 4.14 24.0544C5.07281 24.407 6.05898 24.5978 7.056 24.6184C8.328 24.6904 8.736 24.6904 12 24.6904C15.264 24.6904 15.672 24.6904 16.944 24.6184C17.941 24.5978 18.9272 24.407 19.86 24.0544C20.6635 23.7614 21.3898 23.2895 21.984 22.6744C22.5987 22.0775 23.074 21.3523 23.376 20.5504C23.7182 19.6151 23.9047 18.6301 23.928 17.6344C23.928 16.3624 24 15.9544 24 12.6904C24 9.42643 24 9.01843 23.928 7.74643ZM21.768 17.4904C21.7593 18.2522 21.6213 19.0069 21.36 19.7224C21.1684 20.2447 20.8607 20.7165 20.46 21.1024C20.0708 21.499 19.5999 21.8062 19.08 22.0024C18.3644 22.2637 17.6097 22.4017 16.848 22.4104C15.648 22.4704 15.204 22.4824 12.048 22.4824C8.892 22.4824 8.448 22.4824 7.248 22.4104C6.45707 22.4252 5.66951 22.3035 4.92 22.0504C4.42294 21.8441 3.97363 21.5378 3.6 21.1504C3.20171 20.7649 2.89781 20.2927 2.712 19.7704C2.41903 19.0446 2.25653 18.2728 2.232 17.4904C2.232 16.2904 2.16 15.8464 2.16 12.6904C2.16 9.53443 2.16 9.09043 2.232 7.89043C2.23738 7.1117 2.37954 6.33996 2.652 5.61043C2.86326 5.10392 3.18752 4.65242 3.6 4.29043C3.96458 3.87783 4.41515 3.55014 4.92 3.33043C5.65146 3.06648 6.4224 2.92853 7.2 2.92243C8.4 2.92243 8.844 2.85043 12 2.85043C15.156 2.85043 15.6 2.85043 16.8 2.92243C17.5617 2.93117 18.3164 3.06913 19.032 3.33043C19.5773 3.53281 20.0668 3.86185 20.46 4.29043C20.8532 4.65904 21.1605 5.10971 21.36 5.61043C21.6267 6.34115 21.7647 7.11257 21.768 7.89043C21.828 9.09043 21.84 9.53443 21.84 12.6904C21.84 15.8464 21.828 16.2904 21.768 17.4904ZM12 6.53443C10.783 6.5368 9.59396 6.89986 8.58319 7.57773C7.57242 8.2556 6.78525 9.21787 6.32116 10.3429C5.85707 11.468 5.73687 12.7054 5.97575 13.8987C6.21464 15.0921 6.80188 16.1879 7.66329 17.0476C8.5247 17.9073 9.62161 18.4924 10.8154 18.729C12.0092 18.9656 13.2464 18.843 14.3706 18.3767C15.4947 17.9104 16.4555 17.1214 17.1314 16.1093C17.8073 15.0972 18.168 13.9075 18.168 12.6904C18.1696 11.8806 18.011 11.0784 17.7015 10.33C17.3919 9.5816 16.9375 8.9018 16.3642 8.32969C15.791 7.75758 15.1103 7.30444 14.3614 6.99635C13.6124 6.68825 12.8099 6.53126 12 6.53443ZM12 16.6864C11.2097 16.6864 10.4371 16.4521 9.77994 16.013C9.1228 15.5739 8.61063 14.9498 8.30818 14.2196C8.00573 13.4895 7.9266 12.686 8.08078 11.9108C8.23497 11.1357 8.61555 10.4237 9.1744 9.86483C9.73325 9.30598 10.4453 8.9254 11.2204 8.77121C11.9956 8.61703 12.799 8.69616 13.5292 8.99861C14.2594 9.30105 14.8835 9.81323 15.3226 10.4704C15.7616 11.1275 15.996 11.9001 15.996 12.6904C15.996 13.2152 15.8926 13.7348 15.6918 14.2196C15.491 14.7045 15.1967 15.145 14.8256 15.516C14.4545 15.8871 14.014 16.1814 13.5292 16.3823C13.0444 16.5831 12.5248 16.6864 12 16.6864Z" fill="#2B3253" style="fill:#2B3253;fill:color(display-p3 0.1686 0.1961 0.3255);fill-opacity:1;"/>
</svg>
